<svg class="img-fluid" id="outputsvg" xmlns="http://www.w3.org/2000/svg" style="transform: none; transform-origin: 50% 50%; cursor: move;" width="1000" height="1000" viewBox="0 0 10000 10000"><g id="l2xJkexxVJRpDI5kUBl0CpU" fill="rgb(255,255,255)" style="transform: none;"><g style="transform: none;"><path id="p1DRrCsfMD" d="M0 5000 l0 -5000 5000 0 5000 0 0 5000 0 5000 -5000 0 -5000 0 0 -5000z m3210 2921 c0 -33 22 -41 116 -41 l92 0 12 35 c6 19 16 35 20 35 5 0 -1 -28 -14 -62 -13 -35 -38 -105 -57 -155 -30 -84 -36 -93 -59 -93 -23 0 -29 10 -77 148 -56 156 -59 167 -43 157 6 -3 10 -14 10 -24z m600 -126 c0 -131 -2 -155 -15 -155 -13 0 -15 24 -15 155 0 131 2 155 15 155 13 0 15 -24 15 -155z m362 88 l3 -68 43 -3 c23 -2 42 1 42 6 0 4 7 17 15 28 14 18 14 17 15 -13 l0 -33 -60 0 -61 0 3 -72 3 -73 60 -6 60 -6 -77 -1 -78 -2 0 155 c0 129 2 155 15 155 11 0 15 -16 17 -67z m621 60 l-63 -4 0 -149 c0 -127 -2 -150 -15 -150 -13 0 -15 24 -15 155 l0 155 78 -2 c76 -2 76 -2 15 -5z m387 -148 c0 -131 -2 -155 -15 -155 -13 0 -15 24 -15 155 0 131 2 155 15 155 13 0 15 -24 15 -155z m370 45 l0 -110 30 0 31 0 -31 -45 c-54 -78 -60 -66 -60 110 0 131 2 155 15 155 12 0 15 -19 15 -110z m240 -45 c0 -131 -2 -155 -15 -155 -12 0 -15 19 -15 110 l0 110 -30 0 -31 0 31 45 c54 78 60 66 60 -110z m433 148 l-73 -4 0 -69 0 -70 61 0 c37 0 58 -4 54 -10 -3 -5 -31 -10 -61 -10 l-54 0 0 -65 0 -64 73 -4 72 -3 -87 -2 -88 -2 0 155 0 155 88 -2 87 -2 -72 -3z m505 0 c-10 -2 -26 -2 -35 0 -10 3 -2 5 17 5 19 0 27 -2 18 -5z m92 -74 c0 -4 -8 -17 -18 -29 -17 -21 -17 -21 -13 26 3 44 5 46 17 29 8 -10 14 -22 14 -26z m-163 -107 c-10 -11 -17 -35 -17 -57 0 -32 -2 -36 -15 -25 -23 19 -18 48 11 75 31 29 45 33 21 7z m-2287 -38 c0 -6 -8 -22 -17 -33 -18 -22 -18 -21 -14 31 3 47 5 50 17 33 8 -10 14 -24 14 -31z m-2050 -475 c57 -25 107 -73 131 -124 24 -52 24 -79 -2 -133 -26 -53 -79 -89 -194 -132 -177 -67 -185 -74 -185 -157 0 -39 5 -58 19 -72 26 -26 97 -36 150 -21 34 9 45 18 57 46 l14 34 70 0 c82 0 86 -7 37 -72 -98 -129 -309 -144 -427 -30 -87 85 -87 177 0 256 42 38 77 55 180 88 134 43 150 58 150 142 0 84 -16 99 -111 104 -80 5 -114 -11 -131 -59 -10 -28 -12 -29 -80 -29 -67 0 -69 1 -62 23 41 131 236 200 384 136z m5610 0 c57 -25 107 -73 131 -124 24 -52 24 -79 -2 -132 -27 -56 -79 -91 -204 -138 -165 -61 -175 -70 -175 -144 0 -66 14 -89 61 -101 47 -13 115 -6 141 14 10 7 22 25 27 39 10 26 14 27 81 27 69 0 71 -1 65 -22 -23 -76 -128 -147 -229 -155 -93 -8 -165 16 -226 75 -89 86 -88 176 1 256 37 33 70 50 159 81 61 21 125 49 141 62 26 23 29 31 29 87 0 83 -17 99 -108 104 -79 3 -111 -10 -131 -56 -14 -32 -15 -32 -83 -32 -67 0 -69 1 -62 23 41 132 235 201 384 136z m-5140 -154 l0 -175 33 0 c32 0 41 10 166 175 l133 175 64 0 c35 0 64 -2 64 -5 0 -3 -61 -83 -135 -177 -108 -136 -135 -178 -135 -202 0 -25 26 -64 126 -191 69 -88 128 -163 131 -167 2 -5 -24 -8 -59 -8 l-63 1 -125 168 c-122 165 -126 169 -162 170 l-38 1 0 -170 0 -170 -70 0 -70 0 0 375 0 375 70 0 70 0 0 -175z m1030 39 l0 -137 120 -232 c66 -128 120 -235 120 -239 0 -3 -28 -6 -63 -6 l-62 0 -75 165 -75 164 -37 1 c-21 0 -38 -4 -38 -9 0 -5 -33 -80 -72 -165 l-73 -156 -68 0 -68 0 112 218 c62 119 118 226 126 237 9 14 13 59 13 157 l0 138 70 0 70 0 0 -136z m769 99 c6 -21 31 -121 56 -223 25 -102 50 -202 56 -222 9 -34 13 -38 43 -38 l34 0 52 218 c29 119 57 236 63 260 l11 42 91 0 90 0 94 -363 c51 -199 96 -368 98 -374 4 -10 -13 -13 -65 -13 l-70 0 -10 48 c-6 26 -32 154 -58 285 l-47 237 -33 0 c-23 0 -34 -5 -38 -17 -2 -10 -33 -138 -67 -285 l-63 -268 -82 0 -81 0 -7 33 c-3 17 -34 146 -68 285 l-61 252 -33 0 c-22 0 -34 -5 -38 -17 -3 -10 -28 -138 -57 -285 l-51 -268 -70 0 c-61 0 -69 2 -64 18 3 9 44 172 91 362 48 190 88 351 91 358 2 8 30 12 93 12 l90 0 10 -37z m1001 -338 l0 -375 -65 0 -65 0 0 375 0 375 65 0 65 0 0 -375z m342 133 l3 -243 35 -2 35 -3 159 245 159 245 69 0 68 0 0 -375 0 -375 -65 0 -65 0 -2 243 -3 242 -35 2 -35 3 -159 -245 -159 -245 -68 0 -69 0 0 375 0 375 65 0 65 0 2 -242z m1243 205 c73 -38 147 -110 180 -177 19 -38 25 -65 25 -118 l0 -68 -185 0 -185 0 0 45 0 45 125 0 125 0 0 32 c0 44 -43 112 -87 139 -31 19 -55 24 -133 27 -89 4 -98 2 -150 -25 -44 -24 -59 -39 -83 -83 -27 -52 -28 -60 -25 -165 4 -133 21 -175 91 -219 86 -53 245 -46 303 15 25 27 34 29 96 29 l69 0 -16 -30 c-40 -78 -161 -154 -266 -166 -239 -28 -454 195 -417 432 18 119 96 227 202 281 77 39 94 43 186 39 72 -2 94 -7 145 -33z m429 -1483 c101 -38 197 -147 230 -261 15 -49 16 -218 14 -1664 l-3 -1610 -27 -58 c-37 -79 -78 -128 -141 -170 -108 -72 102 -67 -2675 -67 -1821 0 -2515 3 -2554 11 -112 24 -207 103 -261 216 l-32 68 -3 1600 c-3 1679 -4 1663 41 1750 32 65 134 159 197 183 l55 21 2552 0 c2542 1 2552 1 2607 -19z"></path><path id="pjV8YMph3" d="M3251 7833 c0 -21 8 -60 18 -88 16 -46 20 -50 52 -53 34 -3 35 -2 52 51 9 30 17 70 17 90 l0 37 -70 0 -70 0 1 -37z"></path><path id="p7Os5TXGC" d="M4570 5353 c-14 -2 -63 -10 -110 -18 -357 -59 -708 -278 -934 -580 -121 -163 -241 -440 -253 -588 l-6 -70 59 6 c32 3 129 14 214 24 120 14 229 18 485 17 431 -1 620 -21 1030 -109 294 -63 585 -163 810 -278 101 -52 107 -59 19 -23 -164 67 -553 170 -829 220 -348 62 -463 71 -945 71 -470 0 -567 -7 -840 -56 -135 -24 -321 -77 -405 -114 -88 -39 -199 -110 -235 -152 -75 -86 -93 -204 -44 -301 66 -133 283 -243 512 -259 l82 -6 0 35 c0 30 -5 37 -37 52 -107 51 -223 176 -223 240 0 38 49 101 115 146 48 33 194 95 202 86 4 -3 12 -48 19 -100 76 -545 465 -1002 1014 -1189 231 -79 549 -93 820 -37 104 22 278 83 379 134 198 101 402 284 530 477 96 144 139 231 190 384 41 121 52 199 29 208 -7 3 -4 6 8 6 18 1 22 9 28 54 10 84 7 372 -5 450 -37 247 -132 481 -272 667 -241 322 -568 523 -962 590 -109 19 -365 26 -445 13z"></path><path id="pWRmxP3vC" d="M7072 3793 c-5 -10 -35 -120 -68 -245 -32 -126 -63 -228 -67 -228 -5 0 -72 31 -151 69 l-143 68 -5 85 c-6 89 -20 128 -61 166 -18 17 -34 23 -58 20 -31 -3 -35 -7 -41 -43 -4 -22 -10 -70 -14 -107 -4 -55 -9 -68 -23 -68 -24 0 -41 -20 -41 -50 0 -21 -12 -31 -85 -68 l-85 -44 0 -44 c0 -33 5 -46 19 -54 29 -15 129 -12 191 6 30 8 64 17 75 20 14 3 55 -23 145 -95 69 -56 126 -105 128 -109 1 -5 -83 -78 -188 -163 l-190 -154 0 -42 c0 -54 19 -65 115 -67 68 -1 77 2 161 47 162 87 312 158 346 164 28 4 60 -8 183 -68 l149 -74 94 0 c90 0 95 1 118 28 19 22 24 39 24 84 0 99 -42 152 -221 276 -73 51 -109 83 -120 107 -27 56 -39 167 -39 345 0 177 -7 207 -52 239 -31 22 -85 21 -96 -1z"></path></g></g><g id="l7mLNXTLJqqp797TbIoPpq3" fill="rgb(25,138,215)" style="transform: none;"><g style="transform: none;"><path id="p1FF0Rczh" d="M3140 7973 c0 -4 28 -88 62 -185 l63 -178 56 0 55 0 65 177 c35 97 66 180 67 185 2 4 -19 8 -46 8 -49 0 -51 -1 -62 -35 l-12 -35 -63 0 c-64 0 -80 8 -87 45 -2 16 -12 21 -51 23 -26 2 -47 -1 -47 -5z m219 -145 c0 -7 -9 -35 -19 -63 -11 -32 -20 -45 -24 -35 -9 24 -36 102 -36 106 0 2 18 4 40 4 26 0 40 -4 39 -12z"></path><path id="pBVtgkDLE" d="M3750 7796 l0 -186 45 0 45 0 0 175 c0 96 1 178 3 183 1 4 -19 8 -45 10 l-48 3 0 -185z"></path><path id="p1G67ol84" d="M4110 7796 l0 -186 100 0 c141 0 190 29 190 113 0 48 -13 73 -50 96 l-29 17 39 65 c22 35 39 67 40 72 0 4 -22 7 -49 7 l-50 0 -37 -70 c-21 -39 -43 -69 -49 -67 -5 2 -10 33 -11 68 l-1 64 -47 3 -46 3 0 -185z m190 -41 c22 -27 4 -63 -35 -71 -52 -9 -65 -1 -65 46 l0 40 44 0 c26 0 48 -6 56 -15z"></path><path id="pxa1C8VyO" d="M4670 7792 l0 -187 45 3 45 4 0 149 0 149 60 0 60 0 0 35 0 35 -105 0 -105 0 0 -188z"></path><path id="pbLNqdJCE" d="M5120 7796 l0 -186 48 0 47 0 -2 182 -3 183 -45 3 -45 3 0 -185z"></path><path id="pa53DTr20" d="M5490 7795 l0 -185 45 0 45 0 75 112 75 113 0 -113 0 -112 45 0 45 0 0 185 0 185 -45 0 -46 0 -72 -110 -72 -110 -3 110 -3 110 -44 0 -45 0 0 -185z"></path><path id="pL5LxjUwG" d="M6090 7795 l0 -185 115 0 115 0 0 35 0 35 -70 0 -70 0 0 35 0 34 58 3 57 3 3 38 3 37 -60 0 -61 0 0 40 0 40 70 0 70 0 0 35 0 35 -115 0 -115 0 0 -185z"></path><path id="ptvp7XTQ8" d="M6617 7949 c-20 -19 -38 -44 -42 -56 -6 -22 -3 -23 44 -23 40 0 52 4 61 20 13 24 52 26 71 4 19 -24 1 -45 -58 -65 -71 -24 -100 -46 -113 -84 -14 -44 -4 -80 31 -110 74 -62 210 -32 234 53 6 21 3 22 -44 22 -31 0 -53 -5 -58 -14 -11 -19 -35 -25 -55 -14 -40 20 -13 54 67 83 69 25 95 54 95 104 0 31 -7 49 -29 73 -26 29 -35 33 -99 36 -68 4 -71 3 -105 -29z"></path><path id="pRo9Inn52" d="M2111 7300 c-102 -22 -185 -88 -209 -169 -22 -72 -24 -71 92 -71 l104 0 10 29 c15 43 54 65 103 58 53 -7 79 -31 79 -73 0 -51 -31 -74 -150 -112 -100 -32 -136 -49 -176 -84 -134 -117 -76 -332 102 -384 86 -25 222 -16 290 19 59 30 110 86 124 137 20 71 22 70 -95 70 l-105 0 -14 -35 c-31 -74 -166 -59 -166 20 0 48 24 64 185 125 163 61 215 117 215 231 -1 138 -111 236 -273 244 -40 2 -92 0 -116 -5z"></path><path id="pdn3xgWtV" d="M6944 7299 c-78 -10 -168 -55 -227 -114 -150 -149 -151 -425 -3 -583 82 -88 199 -128 343 -119 139 8 256 79 311 189 36 74 36 73 -85 70 -103 -3 -109 -5 -138 -32 -61 -58 -166 -62 -247 -11 -60 38 -81 85 -86 186 -3 72 -1 85 25 135 23 44 39 60 83 83 49 26 62 28 122 24 82 -5 132 -34 166 -96 l23 -41 -125 0 -126 0 0 -75 0 -75 215 0 215 0 0 98 c0 85 -3 105 -25 148 -55 110 -176 196 -302 214 -37 5 -70 9 -73 9 -3 -1 -33 -5 -66 -10z"></path><path id="pKlNL8263" d="M7725 7302 c-99 -18 -189 -91 -213 -171 -22 -72 -24 -71 91 -71 l103 0 15 32 c18 41 53 60 102 54 50 -6 77 -31 77 -72 0 -47 -39 -75 -170 -119 -166 -57 -230 -123 -230 -236 0 -103 72 -195 176 -225 86 -25 223 -16 290 19 60 31 106 82 123 136 21 72 23 71 -95 71 l-105 0 -10 -29 c-25 -71 -148 -73 -164 -2 -13 59 7 75 170 136 55 21 119 50 142 66 106 73 112 241 12 336 -68 65 -198 95 -314 75z"></path><path id="pc6yikX20" d="M2620 6895 l0 -405 100 0 100 0 0 170 c0 94 3 170 8 169 4 0 63 -77 132 -170 l125 -168 119 -1 c113 0 118 1 104 18 -19 21 -234 294 -271 343 l-27 36 62 79 c34 43 106 134 160 202 54 68 98 125 98 127 0 3 -54 5 -119 5 l-119 0 -134 -176 -133 -177 -3 177 -2 176 -100 0 -100 0 0 -405z"></path><path id="pidgsBCnL" d="M3650 7162 c0 -98 -4 -143 -13 -157 -8 -11 -71 -131 -141 -267 l-127 -248 113 0 113 0 73 156 c39 85 72 160 72 165 0 31 24 -10 90 -156 l75 -165 108 0 c82 0 108 3 105 13 -2 6 -63 127 -135 268 l-133 257 0 136 0 136 -100 0 -100 0 0 -138z"></path><path id="pINpRbq1W" d="M4366 7288 c-15 -47 -196 -778 -196 -789 0 -11 19 -13 104 -11 l104 3 52 272 c29 150 56 278 60 285 5 11 113 -403 136 -525 l7 -33 111 0 112 0 64 273 c35 149 66 278 70 285 4 8 28 -94 54 -225 26 -131 52 -259 58 -285 l10 -48 104 0 c57 0 104 3 104 8 0 4 -46 186 -102 404 l-103 398 -120 0 -121 0 -11 -42 c-6 -24 -35 -142 -64 -263 -38 -159 -54 -214 -60 -200 -5 11 -31 112 -59 225 -28 113 -55 222 -61 243 l-10 37 -120 0 c-87 0 -121 -3 -123 -12z"></path><path id="p1HeBltE2d" d="M5430 6895 l0 -405 98 0 97 0 0 402 -1 403 -97 3 -97 3 0 -406z"></path><path id="p8VuBYUa6" d="M5770 6895 l0 -405 99 0 98 0 160 245 c89 134 163 241 167 238 3 -4 6 -114 6 -245 l0 -238 98 0 97 0 -3 405 -2 405 -98 0 -98 0 -162 -245 c-88 -135 -163 -242 -166 -237 -3 5 -5 114 -5 243 l0 234 -95 3 -96 3 0 -406z"></path><path id="pnNp7wmEu" d="M2464 5799 c-94 -7 -168 -43 -234 -116 -60 -66 -83 -109 -99 -183 -9 -41 -11 -464 -9 -1685 l3 -1630 32 -68 c54 -113 149 -192 261 -216 39 -8 741 -11 2584 -11 2810 0 2596 -5 2705 67 63 42 104 91 141 170 l27 58 3 1640 c2 1473 1 1645 -14 1694 -33 114 -129 223 -231 261 -55 21 -57 21 -2577 23 -1386 1 -2553 0 -2592 -4z m2521 -489 c394 -67 721 -268 962 -590 140 -186 235 -420 272 -667 12 -78 14 -333 3 -400 l-7 -41 -65 39 c-79 49 -333 178 -421 214 -80 33 -332 121 -419 147 -175 51 -538 119 -773 145 -222 24 -802 24 -1027 0 -91 -9 -176 -20 -188 -23 -23 -5 -24 -3 -17 38 23 142 144 409 251 553 226 302 577 521 934 580 47 8 96 16 110 18 75 12 277 6 385 -13z m-275 -1339 c495 -63 963 -182 1285 -326 46 -21 181 -95 204 -112 9 -7 -83 -266 -121 -340 -124 -244 -315 -457 -535 -599 -189 -121 -457 -207 -691 -223 -335 -21 -642 60 -919 245 -359 239 -590 603 -649 1022 -8 58 -16 107 -17 108 -5 5 -147 -45 -202 -71 -78 -37 -170 -127 -178 -175 -18 -100 64 -216 216 -302 l52 -30 -55 6 c-147 15 -324 85 -411 163 -55 50 -99 131 -99 182 0 46 28 107 70 154 36 42 147 113 235 152 92 41 283 93 439 119 121 21 200 30 421 50 22 2 209 3 415 1 313 -2 402 -6 540 -24z m2460 -244 c18 -28 20 -51 20 -200 0 -180 12 -291 39 -347 11 -24 46 -55 121 -107 179 -124 247 -215 209 -282 -43 -76 -122 -67 -328 35 l-156 77 -54 -11 c-53 -11 -190 -75 -364 -169 -72 -39 -96 -47 -133 -45 -52 2 -87 18 -82 37 2 7 93 86 203 176 110 89 200 169 200 178 0 9 -69 71 -153 139 l-153 124 -64 -26 c-110 -44 -215 -45 -215 -2 0 8 41 35 91 61 78 40 90 50 85 68 -6 25 10 47 35 47 11 0 19 6 19 13 1 39 20 189 25 198 5 7 16 2 32 -13 43 -40 56 -77 58 -163 l1 -80 165 -82 c90 -45 172 -82 181 -82 12 -1 20 11 27 37 6 20 35 130 65 244 30 115 58 212 61 218 10 16 43 -7 65 -43z"></path></g></g></svg>